HIERARCHY
ROOT Hips
{
  OFFSET 62.8374 77.8899 -6.86969
  CHANNELS 6 Xposition Yposition Zposition Zrotation Xrotation Yrotation
  JOINT spine
  {
    OFFSET 0 6.3926 0.367606
    CHANNELS 3 Zrotation Xrotation Yrotation
    JOINT spine1
    {
      OFFSET 0 9.17611 0
      CHANNELS 3 Zrotation Xrotation Yrotation
      JOINT spine2
      {
        OFFSET 0 8.79238 0
        CHANNELS 3 Zrotation Xrotation Yrotation
        JOINT Neck
        {
          OFFSET 0 22.5737 1.07624
          CHANNELS 3 Zrotation Xrotation Yrotation
          JOINT Head
          {
            OFFSET 0 6.82011 0
            CHANNELS 3 Zrotation Xrotation Yrotation
            End Site
            {
              OFFSET 0 16.5085 -5.44427
            }
          }
        }
        JOINT RightShoulder
        {
          OFFSET -3.70221 9.49509 -0.515508
          CHANNELS 3 Zrotation Xrotation Yrotation
          JOINT RightArm
          {
            OFFSET 0 12.4537 0
            CHANNELS 3 Zrotation Xrotation Yrotation
            JOINT RightArmRoll
            {
              OFFSET 0 6.28686 0
              CHANNELS 3 Zrotation Xrotation Yrotation
              JOINT RightForeArm
              {
                OFFSET 0 18.3114 0
                CHANNELS 3 Zrotation Xrotation Yrotation
                JOINT RightForeArmRoll
                {
                  OFFSET 0 7.05482 0
                  CHANNELS 3 Zrotation Xrotation Yrotation
                  JOINT RightHand
                  {
                    OFFSET 0 14.1575 0
                    CHANNELS 3 Zrotation Xrotation Yrotation
                    End Site
                    {
                      OFFSET 0 0 0
                    }
                  }
                }
              }
            }
          }
        }
        JOINT LeftShoulder
        {
          OFFSET 3.70221 9.49509 -0.515508
          CHANNELS 3 Zrotation Xrotation Yrotation
          JOINT LeftArm
          {
            OFFSET 0 12.4537 0
            CHANNELS 3 Zrotation Xrotation Yrotation
            JOINT LeftArmRoll
            {
              OFFSET 0 6.28685 0
              CHANNELS 3 Zrotation Xrotation Yrotation
              JOINT LeftForeArm
              {
                OFFSET 0 18.3114 0
                CHANNELS 3 Zrotation Xrotation Yrotation
                JOINT LeftForeArmRoll
                {
                  OFFSET 0 7.05482 0
                  CHANNELS 3 Zrotation Xrotation Yrotation
                  JOINT LeftHand
                  {
                    OFFSET 0 14.1575 0
                    CHANNELS 3 Zrotation Xrotation Yrotation
                    End Site
                    {
                      OFFSET 0 0 0
                    }
                  }
                }
              }
            }
          }
        }
      }
    }
  }
  JOINT RightUpLeg
  {
    OFFSET -5.66615 -1.03903 -0.87161
    CHANNELS 3 Zrotation Xrotation Yrotation
    JOINT RightUpLegRoll
    {
      OFFSET 0 16.6005 0
      CHANNELS 3 Zrotation Xrotation Yrotation
      JOINT RightLeg
      {
        OFFSET 0 -20.5572 0
        CHANNELS 3 Zrotation Xrotation Yrotation
        JOINT RightLegRoll
        {
          OFFSET 0 20.6244 0
          CHANNELS 3 Zrotation Xrotation Yrotation
          JOINT RightFoot
          {
            OFFSET 0 17.1664 0
            CHANNELS 3 Zrotation Xrotation Yrotation
            JOINT RightToeBase
            {
              OFFSET 0 14.3502 0
              CHANNELS 3 Zrotation Xrotation Yrotation
              End Site
              {
                OFFSET 0.00608252 6.94971 -0.801061
              }
            }
          }
        }
      }
    }
  }
  JOINT LeftUpLeg
  {
    OFFSET 5.66615 -1.03903 -0.87161
    CHANNELS 3 Zrotation Xrotation Yrotation
    JOINT LeftUpLegRoll
    {
      OFFSET 0 16.6006 0
      CHANNELS 3 Zrotation Xrotation Yrotation
      JOINT LeftLeg
      {
        OFFSET 0 20.5571 0
        CHANNELS 3 Zrotation Xrotation Yrotation
        JOINT LeftLegRoll
        {
          OFFSET 0 20.8151 0
          CHANNELS 3 Zrotation Xrotation Yrotation
          JOINT LeftFoot
          {
            OFFSET 0 16.9757 0
            CHANNELS 3 Zrotation Xrotation Yrotation
            JOINT LeftToeBase
            {
              OFFSET 0 14.3502 0
              CHANNELS 3 Zrotation Xrotation Yrotation
              End Site
              {
                OFFSET -0.0272592 6.9497 -0.801061
              }
            }
          }
        }
      }
    }
  }
}
MOTION
Frames: 13
Frame Time: 0.00208333
51.8156 80.369 -9.12736 1.11043 13.9593 -2.66436 -0.541536 -1.29112 -0.243257 -1.08593 1.42241 -0.428249 -1.08161 3.06728 -0.410297 5.27319 -17.2517 2.13852 -2.55072 13.0936 2.542 41.5529 -2.72999 0.129071 128.465 53.0454 -18.3016 -7.30611e-006 2.22249e-006 -6.39907e-006 6.91478 61.389 -6.45995 -2.09605e-005 -4.36239e-006 -3.01234 8.02909 -4.95142 0.6977 -23.1253 -7.58008 3.12328 -142.434 56.6732 30.8047 1.19272e-006 3.86199e-006 2.91767e-006 5.01614 70.5083 -4.30025 2.99211e-007 -4.8246e-007 3 -8.02892 -4.95145 -0.697697 176.935 38.0395 0.686718 180 7.01588e-015 179.117 178.551 46.4596 179.124 -3.03243e-007 -1.62171e-006 1.27389 -38.7539 79.7581 41.0625 8.32763 28.8574 -2.72897 -179.924 37.0771 0.594499 4.54188e-006 -4.6773e-006 -1.03586 -4.79207 -46.28 -1.2256 -4.15996e-007 -3.04926e-006 -1.26418 42.3833 79.383 -41.8227 -8.54044 30.9217 3.68121 
51.8954 80.8595 -8.79384 1.12227 13.8296 -2.62774 -0.541797 -1.33081 -0.244503 -1.08652 1.34303 -0.431091 -1.08214 2.9879 -0.413125 5.25387 -16.8001 2.08649 -2.57887 13.0748 2.51143 41.5652 -2.86311 0.0139792 128.358 52.5981 -18.2388 -7.30611e-006 2.22249e-006 -6.39907e-006 6.99784 61.4951 -6.53032 -2.09605e-005 -4.36239e-006 -3.01232 8.02909 -4.95142 0.6977 -23.1631 -7.60223 3.15034 -142.439 56.1687 30.846 1.19272e-006 3.86199e-006 2.91767e-006 4.85842 70.7659 -4.13356 2.99211e-007 -4.8246e-007 3 -8.02892 -4.95145 -0.697697 176.814 37.1561 0.658478 180 7.01589e-015 179.124 178.484 45.0445 179.165 -3.03243e-007 -1.62172e-006 1.20675 -36.1853 79.1073 38.4175 8.32461 28.7442 -2.7693 -179.955 36.1044 0.764017 4.54188e-006 -4.6773e-006 -1.02223 -4.71804 -44.7474 -1.14824 -4.15996e-007 -3.04927e-006 -1.19524 39.5348 78.7269 -39.0326 -8.51999 30.6489 3.67063 
51.9282 81.1975 -8.54446 1.13381 13.7066 -2.58641 -0.542229 -1.37187 -0.247213 -1.08747 1.26095 -0.436874 -1.08299 2.90582 -0.418889 5.2352 -16.3369 2.03241 -2.60328 13.0426 2.48033 41.5732 -2.99757 -0.101971 128.251 52.1462 -18.1673 -7.30611e-006 2.22249e-006 -6.39907e-006 7.07208 61.6122 -6.59269 -2.09605e-005 -4.36239e-006 -3.0123 8.02909 -4.95142 0.6977 -23.2103 -7.63115 3.18557 -142.403 55.6697 30.8947 1.19272e-006 3.86199e-006 2.91767e-006 4.6704 71.0034 -3.93813 2.99211e-007 -4.8246e-007 3 -8.02892 -4.95145 -0.697697 176.686 36.2522 0.629333 180 7.0159e-015 179.13 178.428 43.5462 179.197 -3.03243e-007 -1.62172e-006 1.13641 -33.7196 78.3749 35.8692 8.31901 28.5803 -2.81589 -179.983 35.1112 0.930516 4.54188e-006 -4.6773e-006 -1.00857 -4.63164 -43.1356 -1.05806 -4.15996e-007 -3.04928e-006 -1.12407 36.7091 77.9688 -36.2846 -8.49574 30.3231 3.65817 
51.9601 81.784 -8.58414 1.14508 13.5894 -2.54118 -0.542665 -1.41404 -0.251128 -1.08845 1.17663 -0.445088 -1.08386 2.8215 -0.427085 5.21558 -15.8636 1.97682 -2.62342 12.9993 2.4486 41.5785 -3.13273 -0.218358 128.141 51.6903 -18.0871 -7.30611e-006 2.22249e-006 -6.39907e-006 7.13865 61.7398 -6.64827 -2.09605e-005 -4.36239e-006 -3.01228 8.02909 -4.95142 0.6977 -23.2699 -7.66544 3.22757 -142.325 55.1753 30.9479 1.19272e-006 3.86199e-006 2.91767e-006 4.45441 71.2234 -3.71583 2.99211e-007 -4.8246e-007 3 -8.02892 -4.95145 -0.697697 176.555 35.333 0.599204 180 -7.01591e-015 179.136 178.381 41.9791 179.219 -3.03243e-007 -1.62173e-006 1.06369 -31.4237 77.5731 33.4861 8.31098 28.3732 -2.8676 179.993 34.1017 1.09474 4.54188e-006 -4.6773e-006 -0.994926 -4.53579 -41.4577 -0.958775 -4.15996e-007 -3.04929e-006 -1.05127 34.0084 77.1211 -33.6782 -8.4684 29.9532 3.64426 
51.991 82.2586 -8.2848 1.1561 13.4773 -2.49288 -0.542939 -1.4571 -0.255987 -1.08915 1.09055 -0.455224 -1.0844 2.73542 -0.437209 5.19337 -15.3822 1.92027 -2.63876 12.9474 2.41618 41.5827 -3.26797 -0.334757 128.026 51.2307 -17.9979 -7.30611e-006 2.22249e-006 -6.39907e-006 7.19872 61.8775 -6.69828 -2.09605e-005 -4.36239e-006 -3.01226 8.02909 -4.95142 0.6977 -23.3445 -7.70369 3.27494 -142.205 54.685 31.0029 1.19272e-006 3.86199e-006 2.91767e-006 4.21288 71.4283 -3.46863 2.99211e-007 -4.8246e-007 3 -8.02892 -4.95145 -0.697697 176.419 34.4032 0.568002 180 7.01592e-015 179.142 178.344 40.3578 179.233 -3.03243e-007 -1.62173e-006 0.989394 -29.3343 76.7161 31.3061 8.3007 28.1304 -2.92326 179.971 33.0805 1.25742 4.54188e-006 -4.6773e-006 -0.98133 -4.4328 -39.7266 -0.853567 -4.15996e-007 -3.0493e-006 -0.977463 31.4958 76.1992 -31.2736 -8.43868 29.5477 3.6293 
52.0611 82.7786 -8.25171 1.16688 13.3693 -2.44232 -0.542885 -1.5008 -0.261532 -1.08921 1.00319 -0.466773 -1.08431 2.64807 -0.448755 5.16692 -14.8942 1.86328 -2.64878 12.889 2.38299 41.5874 -3.40265 -0.450746 127.901 50.7679 -17.8999 -7.30611e-006 2.22249e-006 -6.39907e-006 7.25347 62.0248 -6.74395 -2.09605e-005 -4.36239e-006 -3.01224 8.02909 -4.95142 0.6977 -23.4369 -7.7445 3.32629 -142.043 54.1979 31.0571 1.19272e-006 3.86199e-006 2.91767e-006 3.94836 71.6206 -3.19861 2.99211e-007 -4.8246e-007 3 -8.02892 -4.95145 -0.697697 176.281 33.4679 0.53563 180 7.01593e-015 179.148 178.313 38.6966 179.242 -3.03243e-007 -1.62174e-006 0.914346 -27.4654 75.8193 29.3451 8.28837 27.8593 -2.98175 179.951 32.052 1.41932 4.54188e-006 -4.6773e-006 -0.967818 -4.32445 -37.9554 -0.745178 -4.15996e-007 -3.0493e-006 -0.903259 29.2035 75.2204 -29.1001 -8.40728 29.1155 3.61369 
52.1266 83.2492 -7.9931 1.17744 13.2646 -2.39034 -0.542333 -1.54491 -0.267501 -1.08832 0.915025 -0.479223 -1.08324 2.55991 -0.461219 5.13455 -14.4016 1.80638 -2.65295 12.8266 2.34894 41.5943 -3.53614 -0.5659 127.764 50.3024 -17.7927 -7.30611e-006 2.22249e-006 -6.39907e-006 7.3041 62.1813 -6.78652 -2.09605e-005 -4.36239e-006 -3.01223 8.02909 -4.95142 0.6977 -23.5501 -7.78648 3.38021 -141.838 53.7135 31.1082 1.19272e-006 3.86199e-006 2.91767e-006 3.66342 71.8026 -2.90791 2.99211e-007 -4.8246e-007 3 -8.02892 -4.95145 -0.697697 176.142 32.532 0.501982 180 7.01594e-015 179.153 178.289 37.01 179.246 -3.03243e-007 -1.62174e-006 0.83936 -25.8165 74.8992 27.6035 8.27425 27.5673 -3.04195 179.933 31.0205 1.58118 4.54188e-006 -4.6773e-006 -0.954426 -4.21197 -36.1571 -0.635946 -4.15996e-007 -3.04931e-006 -0.829275 27.1423 74.2036 -27.1658 -8.37486 28.6652 3.59777 
52.1212 83.803 -8.05385 1.18779 13.1623 -2.33775 -0.541115 -1.58918 -0.273635 -1.08613 0.826532 -0.492067 -1.08086 2.47141 -0.474098 5.09455 -13.906 1.75007 -2.65073 12.7623 2.31395 41.6049 -3.66782 -0.679796 127.612 49.8344 -17.6764 -7.30611e-006 2.22249e-006 -6.39907e-006 7.3518 62.3464 -6.82723 -2.09605e-005 -4.36239e-006 -3.01221 8.02909 -4.95142 0.6977 -23.6868 -7.82822 3.4353 -141.592 53.231 31.1537 1.19272e-006 3.86199e-006 2.91767e-006 3.36064 71.977 -2.59865 2.99211e-007 -4.8246e-007 3 -8.02892 -4.95145 -0.697697 176.003 31.6004 0.466946 180 7.01595e-015 179.158 178.27 35.3125 179.247 -3.03243e-007 -1.62175e-006 0.765251 -24.3776 73.9723 26.073 8.25865 27.2621 -3.10278 179.917 29.9905 1.74372 4.54188e-006 -4.6773e-006 -0.941191 -4.09615 -34.345 -0.527868 -4.15996e-007 -3.04931e-006 -0.756128 25.3093 73.1684 -25.4646 -8.34206 28.2056 3.5819 
52.2121 84.3156 -7.79312 1.19792 13.0616 -2.28537 -0.539062 -1.63338 -0.279673 -1.08228 0.738184 -0.504794 -1.07684 2.38307 -0.486888 5.0452 -13.4093 1.69486 -2.64157 12.6986 2.27793 41.6209 -3.79705 -0.792007 127.442 49.3645 -17.5508 -7.30611e-006 2.22249e-006 -6.39907e-006 7.39782 62.5197 -6.86736 -2.09605e-005 -4.36239e-006 -3.01219 8.02909 -4.95142 0.6977 -23.8498 -7.86834 3.49015 -141.303 52.7498 31.1915 1.19272e-006 3.86199e-006 2.91767e-006 3.04258 72.1461 -2.27293 2.99211e-007 -4.8246e-007 3 -8.02892 -4.95145 -0.697697 175.865 30.6781 0.4304 180 7.01596e-015 179.162 178.255 33.6184 179.246 -3.03243e-007 -1.62175e-006 0.692833 -23.1341 73.0559 24.7402 8.24194 26.951 -3.16315 179.901 28.9663 1.90768 4.54188e-006 -4.6773e-006 -0.92815 -3.97732 -32.532 -0.422666 -4.15996e-007 -3.04932e-006 -0.684431 23.6938 72.1346 -23.9832 -8.3095 27.7454 3.56636 
52.1557 84.9143 -7.78363 1.20785 12.9616 -2.23403 -0.536003 -1.67726 -0.285355 -1.07645 0.650459 -0.516895 -1.07083 2.29535 -0.499084 4.98473 -12.9131 1.64123 -2.62493 12.6377 2.24081 41.6439 -3.9232 -0.902108 127.251 48.893 -17.4158 -7.30611e-006 2.22249e-006 -6.39907e-006 7.44341 62.7008 -6.90822 -2.09605e-005 -4.36239e-006 -3.01217 8.02909 -4.95142 0.6977 -24.0421 -7.90542 3.54336 -140.973 52.269 31.2194 1.19272e-006 3.86199e-006 2.91767e-006 2.7117 72.3125 -1.93279 2.99211e-007 -4.8246e-007 3 -8.02892 -4.95145 -0.697697 175.729 29.77 0.392213 180 7.01597e-015 179.167 178.244 31.9422 179.243 -3.03243e-007 -1.62175e-006 0.622924 -22.0697 72.1668 23.5903 8.22455 26.6416 -3.22203 179.887 27.9525 2.07378 4.54188e-006 -4.6773e-006 -0.915337 -3.85544 -30.7312 -0.321847 -4.15996e-007 -3.04932e-006 -0.614802 22.2822 71.1223 -22.7049 -8.2778 27.2934 3.55145 
52.2319 85.4829 -7.60925 1.21757 12.8614 -2.18453 -0.531767 -1.72059 -0.290421 -1.06827 0.563832 -0.527861 -1.06249 2.20872 -0.510183 4.91136 -12.4192 1.58969 -2.60025 12.582 2.20248 41.6757 -4.04566 -1.00967 127.036 48.4203 -17.2712 -7.30611e-006 2.22249e-006 -6.39907e-006 7.48987 62.889 -6.95112 -2.09605e-005 -4.36239e-006 -3.01216 8.02909 -4.95142 0.6977 -24.2664 -7.93808 3.59352 -140.602 51.788 31.2355 1.19272e-006 3.86199e-006 2.91767e-006 2.37038 72.4787 -1.58014 2.99211e-007 -4.8246e-007 3 -8.02892 -4.95145 -0.697697 175.597 28.881 0.352249 180 7.01598e-015 179.172 178.237 30.2983 179.241 -3.03243e-007 -1.62174e-006 0.556337 -21.1685 71.3222 22.6083 8.20698 26.3412 -3.27837 179.873 26.9533 2.24273 4.54188e-006 -4.6773e-006 -0.90279 -3.73013 -28.9558 -0.226762 -4.15995e-007 -3.04931e-006 -0.547854 21.0602 70.1517 -21.6126 -8.24752 26.8581 3.53742 
52.2315 85.9259 -7.44154 1.22708 12.7603 -2.1377 -0.526181 -1.76313 -0.294611 -1.0574 0.478779 -0.537182 -1.05147 2.12368 -0.519682 4.82329 -11.9294 1.54071 -2.56698 12.5338 2.16287 41.7178 -4.16378 -1.11427 126.794 47.9469 -17.117 -7.30611e-006 2.22249e-006 -6.39907e-006 7.53854 63.084 -6.99744 -2.09605e-005 -4.36239e-006 -3.01214 8.02909 -4.95142 0.6977 -24.5256 -7.96493 3.63923 -140.19 51.306 31.2378 1.19272e-006 3.86199e-006 2.91767e-006 2.02086 72.6472 -1.21682 2.99211e-007 -4.8246e-007 3 -8.02892 -4.95145 -0.697697 175.47 28.0161 0.310364 180 7.01598e-015 179.177 178.232 28.7011 179.239 -3.03244e-007 -1.62174e-006 0.493889 -20.4156 70.5388 21.7807 8.18976 26.0574 -3.33116 179.859 25.9732 2.41522 4.54188e-006 -4.67731e-006 -0.890545 -3.60074 -27.2188 -0.138651 -4.15995e-007 -3.04931e-006 -0.484204 20.0147 69.2425 -20.69 -8.21924 26.4485 3.5245 
52.41 86.5123 -7.27594 1.23637 12.6572 -2.09436 -0.519071 -1.80464 -0.297665 -1.04347 0.395776 -0.544349 -1.03743 2.04068 -0.527076 4.7187 -11.4454 1.49477 -2.52453 12.4954 2.12188 41.772 -4.27695 -1.21547 126.521 47.4731 -16.953 -7.30611e-006 2.22249e-006 -6.39907e-006 7.59078 63.2852 -7.04858 -2.09605e-005 -4.36239e-006 -3.01212 8.02909 -4.95142 0.6977 -24.8225 -7.98456 3.67906 -139.739 50.8223 31.2246 1.19272e-006 3.86199e-006 2.91767e-006 1.66523 72.8205 -0.844483 2.99211e-007 -4.8246e-007 3 -8.02892 -4.95145 -0.697697 175.348 27.1802 0.266405 180 7.01599e-015 179.181 178.23 27.1652 179.239 -3.03244e-007 -1.62173e-006 0.436394 -19.7985 69.8334 21.096 8.1735 25.7977 -3.3794 179.845 25.0165 2.59195 4.54188e-006 -4.6773e-006 -0.878638 -3.46634 -25.5334 -0.0586934 -4.15995e-007 -3.0493e-006 -0.424467 19.1346 68.4146 -19.9231 -8.19351 26.0731 3.5129 
